<svg width="32" height="32" viewBox="0 0 32 32" xmlns="http://www.w3.org/2000/svg">
  <g fill="none">
    <path d="M14.25 6.75C18.3921 6.75 21.75 10.1079 21.75 14.25C21.75 15.8697 21.2343 17.3678 20.3613 18.5938L24.3838 22.6162C24.8719 23.1044 24.8719 23.8956 24.3838 24.3838C23.8956 24.8719 23.1044 24.8719 22.6162 24.3838L18.5938 20.3613C17.3678 21.2343 15.8697 21.75 14.25 21.75C10.1079 21.75 6.75 18.3921 6.75 14.25C6.75 10.1079 10.1079 6.75 14.25 6.75Z" fill="#000" filter="url(#cursor_zoomin_shadow)"></path>
    <circle cx="14.25" cy="14.25" r="6.5" fill="#fff"></circle>
    <path d="M14.25 11V17.5" stroke="#030303" stroke-width="1.5" stroke-linecap="round" stroke-linejoin="round"></path>
    <path d="M17.505 14.245L11.005 14.245" stroke="#030303" stroke-width="1.5" stroke-linecap="round" stroke-linejoin="round"></path>
    <defs>
      <filter id="cursor_zoomin_shadow" x="5.75" y="6.75" width="20" height="20" filterUnits="userSpaceOnUse" color-interpolation-filters="sRGB">
        <feFlood flood-opacity="0" result="BackgroundImageFix"></feFlood>
        <feColorMatrix in="SourceAlpha" type="matrix" values="0 0 0 0 0 0 0 0 0 0 0 0 0 0 0 0 0 0 127 0" result="hardAlpha"></feColorMatrix>
        <feOffset dy="1"></feOffset>
        <feGaussianBlur stdDeviation=".5"></feGaussianBlur>
        <feComposite in2="hardAlpha" operator="out"></feComposite>
        <feColorMatrix type="matrix" values="0 0 0 0 0 0 0 0 0 0 0 0 0 0 0 0 0 0 0.25 0"></feColorMatrix>
        <feBlend mode="normal" in2="BackgroundImageFix" result="effect1_dropShadow"></feBlend>
        <feBlend mode="normal" in="SourceGraphic" in2="effect1_dropShadow" result="shape"></feBlend>
      </filter>
    </defs>
  </g>
</svg>
